<svg width="66" height="64" viewBox="0 0 66 64" fill="none" xmlns="http://www.w3.org/2000/svg">
<ellipse cx="33" cy="32" rx="33" ry="32" fill="#E4E4E4"/>
<path d="M31.4457 15.0506C31.945 14.0972 32.1947 13.6206 32.5337 13.4683C32.8286 13.3358 33.1713 13.3358 33.4662 13.4683C33.8052 13.6206 34.0549 14.0972 34.5542 15.0506L39.2921 24.0951C39.4395 24.3765 39.5132 24.5173 39.6209 24.6265C39.7163 24.7233 39.8307 24.8016 39.9578 24.8573C40.1013 24.9202 40.2661 24.9429 40.5957 24.9883L51.1934 26.448C52.3094 26.6017 52.8674 26.6785 53.1256 26.9354C53.3503 27.1588 53.456 27.4659 53.4132 27.7711C53.364 28.1219 52.9601 28.4926 52.1521 29.2342L44.4864 36.2698C44.2474 36.4891 44.1279 36.5988 44.0508 36.7293C43.9826 36.8448 43.9388 36.9717 43.9219 37.103C43.9028 37.2513 43.931 37.4062 43.9874 37.716L45.7962 47.6535C45.9869 48.7017 46.0823 49.2257 45.9031 49.5367C45.7471 49.8073 45.4699 49.9971 45.1486 50.0532C44.7793 50.1177 44.2798 49.8702 43.281 49.3753L33.8067 44.6803C33.5115 44.534 33.3639 44.4609 33.2084 44.4321C33.0708 44.4067 32.9291 44.4067 32.7915 44.4321C32.636 44.4609 32.4884 44.534 32.1932 44.6803L22.7189 49.3753C21.7201 49.8702 21.2206 50.1177 20.8514 50.0532C20.5301 49.9971 20.2528 49.8073 20.0968 49.5367C19.9176 49.2257 20.013 48.7017 20.2037 47.6535L22.0125 37.716C22.0689 37.4062 22.0971 37.2513 22.078 37.103C22.0611 36.9717 22.0173 36.8448 21.9491 36.7293C21.872 36.5988 21.7525 36.4891 21.5135 36.2698L13.8478 29.2342C13.0399 28.4926 12.6359 28.1219 12.5867 27.7711C12.544 27.4659 12.6496 27.1588 12.8743 26.9354C13.1325 26.6785 13.6905 26.6017 14.8065 26.448L25.4043 24.9883C25.7338 24.9429 25.8986 24.9202 26.0421 24.8573C26.1692 24.8016 26.2836 24.7233 26.379 24.6265C26.4867 24.5173 26.5604 24.3765 26.7079 24.0951L31.4457 15.0506Z" stroke="#6FBB84" stroke-width="2" stroke-linecap="round" stroke-linejoin="round"/>
</svg>
