<svg width="66" height="64" viewBox="0 0 66 64" fill="none" xmlns="http://www.w3.org/2000/svg">
<ellipse cx="33" cy="32" rx="33" ry="32" fill="#E4E4E4"/>
<path d="M24.6667 26.8125H33.5M24.6667 33.375H40.125M33.5 48.375C44.4767 48.375 53.375 40.8198 53.375 31.5C53.375 22.1802 44.4767 14.625 33.5 14.625C22.5233 14.625 13.625 22.1802 13.625 31.5C13.625 33.7446 14.1412 35.8869 15.0782 37.846C15.2576 38.2209 15.3472 38.4084 15.3872 38.5599C15.4264 38.7081 15.4407 38.8178 15.4407 38.9698C15.4407 39.1251 15.4075 39.2942 15.3411 39.6325L14.0316 46.3036C13.8945 47.0022 13.8259 47.3515 13.9535 47.604C14.0652 47.8251 14.2727 48.0013 14.533 48.0961C14.8305 48.2044 15.2419 48.1462 16.0647 48.0298L23.9217 46.9179C24.3201 46.8615 24.5194 46.8333 24.7023 46.8334C24.8812 46.8334 25.0104 46.8455 25.185 46.8788C25.3635 46.9127 25.5843 46.9889 26.0259 47.1411C28.3332 47.9367 30.8563 48.375 33.5 48.375Z" stroke="#6FBB84" stroke-width="2" stroke-linecap="round" stroke-linejoin="round"/>
</svg>
